<?xml version="1.0" encoding="iso-8859-1"?>
<!-- Generator: Adobe Illustrator 19.0.0, SVG Export Plug-In . SVG Version: 6.00 Build 0)  -->
<svg version="1.1" id="Layer_1" xmlns="http://www.w3.org/2000/svg" xmlns:xlink="http://www.w3.org/1999/xlink" x="0px" y="0px"
	 viewBox="0 0 512.002 512.002" style="enable-background:new 0 0 512.002 512.002;" xml:space="preserve">
<g>
	<path style="fill:#111111;" d="M256.001,349.09h-93.091V23.273C162.911,10.42,152.489,0,139.638,0
		c-12.854,0-23.273,10.42-23.273,23.273V349.09H23.275c-9.411,0-17.9,5.671-21.501,14.367c-3.601,8.696-1.61,18.707,5.046,25.363
		l116.362,116.363c4.364,4.364,10.283,6.816,16.457,6.816c6.172,0,12.091-2.453,16.454-6.817l116.363-116.363
		c6.658-6.656,8.648-16.666,5.046-25.363C273.9,354.761,265.413,349.09,256.001,349.09z"/>
	<path style="fill:#111111;" d="M505.182,123.181L388.818,6.817c-9.087-9.089-23.823-9.089-32.912,0L239.543,123.181
		c-6.654,6.656-8.645,16.666-5.046,25.363c3.603,8.696,12.089,14.367,21.502,14.367h93.091v325.819
		c0,12.853,10.418,23.273,23.273,23.273c12.851,0,23.273-10.42,23.273-23.273v-325.82h93.091c9.411,0,17.898-5.671,21.499-14.367
		C513.83,139.845,511.839,129.837,505.182,123.181z"/>
</g>
<g>
</g>
<g>
</g>
<g>
</g>
<g>
</g>
<g>
</g>
<g>
</g>
<g>
</g>
<g>
</g>
<g>
</g>
<g>
</g>
<g>
</g>
<g>
</g>
<g>
</g>
<g>
</g>
<g>
</g>
</svg>
